<svg width="425" height="442" viewBox="0 0 425 442" fill="none" xmlns="http://www.w3.org/2000/svg">
<g filter="url(#filter0_d_1_18)">
<path d="M11.3037 245.876C11.3037 245.876 2.48241 226.539 22.7363 213.159C42.9903 199.779 76.8105 235.076 102.829 210.355C128.847 185.635 121.458 187.036 134.228 159.289C146.999 131.542 190.755 119.755 235.721 139.761C280.687 159.767 266.771 131.064 320.144 131.382C373.486 131.701 348.901 257.057 278.172 273.91C207.442 290.762 165.851 323.797 135.279 335.393C104.676 347.021 31.3347 293.725 11.3037 245.876Z" fill="#F1F2F7"/>
<path d="M119.898 392.162H274.063" stroke="#CED5E5" stroke-width="3" stroke-linecap="round" stroke-linejoin="round"/>
<path d="M17.1953 392.162H69.7727" stroke="#CED5E5" stroke-width="3" stroke-linecap="round" stroke-linejoin="round"/>
<path d="M74.6132 392.162H86.1414" stroke="#CED5E5" stroke-width="3" stroke-linecap="round" stroke-linejoin="round"/>
<path d="M101.746 169.388C101.746 169.388 93.5296 167.827 92.0647 167.731C91.1093 167.667 77.3837 171.65 77.3837 171.65L76.7468 173.465L75.8233 176.141C75.8233 176.141 74.7087 181.207 80.7276 181.111C86.7464 181.047 98.0835 176.524 98.0835 176.524L101.746 169.388Z" fill="#FFDFD7"/>
<path d="M291.324 125.999C291.324 125.999 298.394 121.507 299.699 120.87C300.591 120.456 314.794 119.086 314.794 119.086L316.036 120.551L317.883 122.686C317.883 122.686 320.781 126.986 315.176 129.121C309.572 131.255 297.375 131.255 297.375 131.255L291.324 125.999Z" fill="#FFDFD7"/>
<path d="M314.826 119.086C314.826 119.086 315.081 120.902 309.38 122.08C303.68 123.259 301.164 123.641 301.164 123.641" fill="#FFDFD7"/>
<path d="M314.826 119.086C314.826 119.086 315.081 120.902 309.38 122.08C303.68 123.259 301.164 123.641 301.164 123.641" stroke="white" stroke-width="2" stroke-linecap="round" stroke-linejoin="round"/>
<path d="M83.8167 174.198C79.7722 174.421 76.4284 173.625 73.2757 173.657C69.295 173.689 69.6134 177.416 70.0593 181.366C72.6069 204.335 82.3199 274.802 90.1221 308.092C99.4529 347.818 125.439 395.953 190.436 376.68C255.434 357.407 280.305 276.458 285.369 242.308C290.432 208.158 320.176 128.07 320.176 128.07C320.176 128.07 324.889 117.238 310.336 123.323" stroke="#5900CC" stroke-width="8" stroke-linecap="round" stroke-linejoin="round"/>
<path d="M168.654 105.834C168.367 105.897 171.488 94.0464 168.176 86.7193C164.864 79.3604 173.271 64.3559 182.953 71.8741L184.386 85.4769C184.386 85.4769 179.672 103.635 168.654 105.834Z" fill="#FE8163"/>
<path d="M155.438 383.37L145.406 396.527C145.406 396.527 150.565 420.132 171.934 423.159C171.934 423.159 174.004 414.494 171.17 409.683C168.654 405.415 161.106 397.642 158.336 395.889L162.699 392.449L155.438 383.37Z" fill="#5900CC"/>
<path d="M190.755 123.896L194.449 108.382L200.563 110.134L201.328 124.852V133.963L195.468 136.193C195.468 136.193 191.041 131.988 191.01 131.797C190.978 131.605 190.755 123.896 190.755 123.896Z" fill="#FFDFD7"/>
<path d="M170.182 143.329C170.182 143.329 165.087 132.53 167.157 128.611C169.195 124.693 181.01 121.635 189.003 123.96C196.997 126.286 175.787 146.069 170.182 143.329Z" fill="#FFC933"/>
<path d="M308.839 392.162H379.696" stroke="#CED5E5" stroke-width="3" stroke-linecap="round" stroke-linejoin="round"/>
<path d="M384.568 392.162H396.128" stroke="#CED5E5" stroke-width="3" stroke-linecap="round" stroke-linejoin="round"/>
<path d="M402.561 392.162H408.325" stroke="#CED5E5" stroke-width="3" stroke-linecap="round" stroke-linejoin="round"/>
<path d="M355.429 392.162C391.643 392.162 421 362.795 421 326.569C421 290.343 391.643 260.976 355.429 260.976C319.216 260.976 289.859 290.343 289.859 326.569C289.859 362.795 319.216 392.162 355.429 392.162Z" fill="#FFB3DA"/>
<path d="M61.843 365.626H36.3027C32.736 365.626 29.838 362.727 29.838 359.159V352.692C29.838 342.752 37.9269 334.693 47.8309 334.693H50.3467C60.2826 334.693 68.3396 342.784 68.3396 352.692V359.159C68.3077 362.727 65.4098 365.626 61.843 365.626ZM47.7991 340.236C40.9522 340.236 35.3474 345.811 35.3474 352.692V359.159C35.3474 359.668 35.7613 360.082 36.2709 360.082H61.8112C62.3207 360.082 62.7347 359.668 62.7347 359.159V352.692C62.7347 345.842 57.1617 340.236 50.283 340.236H47.7991Z" fill="#5900CC"/>
<path d="M73.2436 372.921C73.2436 359.573 62.4479 348.773 49.1045 348.773C35.7611 348.773 24.9654 359.573 24.9654 372.921C24.9654 386.269 35.7611 392.162 49.1045 392.162C62.4161 392.162 73.2436 386.269 73.2436 372.921Z" fill="#8B34FF"/>
<path d="M177.252 218.192C177.252 218.192 171.743 238.135 177.252 256.771C182.761 275.407 191.806 294.649 191.806 294.649C191.806 294.649 156.871 339.057 152.635 384.357L163.845 393.883C163.845 393.883 210.467 318.987 214.416 308.22C218.365 297.484 205.372 227.081 205.372 227.081L204.098 213.669L178.399 215.23L177.252 218.192Z" fill="#52CB96"/>
<path d="M222.059 212.394C222.059 212.394 241.007 275.152 243.523 292.673C246.071 310.195 245.784 403.758 245.784 403.758H229.67C229.67 403.758 218.078 340.427 222.027 308.06L211.996 268.048L199.417 213.923L222.059 212.394Z" fill="#52CB96"/>
<path d="M97.5741 177.479L102.096 168.719L106.332 169.834C106.332 169.834 107.797 167.858 110.79 168.273C113.815 168.687 147.986 177.447 147.986 177.447C147.986 177.447 175.787 128.93 190.628 123.832C190.628 123.832 196.36 125.585 198.971 133.453C198.971 133.453 200.468 129.63 201.36 124.82C201.36 124.82 209.003 125.33 222.059 138.678C235.116 152.026 246.995 157.76 246.995 157.76C246.995 157.76 276.675 131.669 279.923 129.503C283.171 127.305 285.846 127.878 285.846 127.878L290.591 124.756L299.222 132.657L296.005 135.301C296.005 135.301 297.311 137.563 295.814 139.442C294.317 141.322 250.052 177.702 246.931 179.295C243.81 180.888 215.181 156.103 215.181 156.103C215.181 156.103 227.569 206.979 221.072 206.787L218.907 208.635L178.399 210.61V209.782C178.399 209.782 176.01 208.157 176.998 200.958C177.985 193.758 182.793 156.581 182.793 156.581C182.793 156.581 158.622 189.234 155.947 192.324C153.272 195.415 138.432 191.751 138.432 191.751C138.432 191.751 102.542 183.277 102.128 180.856C102.128 180.856 101.746 180.123 101.937 179.295L97.5741 177.479Z" fill="#FFC933"/>
<path d="M186.933 98.7612C186.933 98.7612 191.678 110.198 196.041 112.683C200.404 115.167 205.722 114.658 209.034 109.497C212.346 104.336 213.843 86.1141 213.142 78.0543C212.442 69.9946 192.442 69.7716 189.704 74.3908C186.933 78.9782 182.857 85.6681 186.933 98.7612Z" fill="#FFDFD7"/>
<path d="M231.677 403.758V412.901C231.677 412.901 239.575 430.613 260.975 433.64C260.975 433.64 262.281 424.592 258.523 421.375C254.765 418.157 246.74 410.544 243.906 409.97L243.46 403.758H231.677Z" fill="#5900CC"/>
<path d="M191.01 106.758C191.01 106.758 179.577 97.0094 179.545 85.5409C179.481 74.1362 181.902 70.186 186.965 66.9684C192.029 63.7509 210.722 60.3104 213.111 77.4812C213.111 77.4812 202.952 79.9342 195.595 77.7042C193.971 77.2263 192.252 78.0227 191.583 79.5519L188.462 90.7654L186.042 95.1935L191.01 106.758Z" fill="#FE8163"/>
<path d="M186.01 95.1933C186.01 95.1933 180.437 92.7084 181.647 85.8274C182.857 78.9463 187.252 83.6293 188.43 86.8149C189.131 88.7263 188.876 90.4785 188.748 91.2112C188.398 93.9509 186.01 95.1933 186.01 95.1933Z" fill="#FFDFD7"/>
<path d="M191.01 106.757C191.01 106.757 177.889 93.8233 178.112 84.0751C178.271 77.7356 180.023 74.104 182.316 71.3324" stroke="#FF562F" stroke-width="3" stroke-linecap="round" stroke-linejoin="round"/>
<path d="M178.399 215.23V209.782C178.399 209.782 211.805 210.069 221.072 206.819L222.059 212.394C222.059 212.394 211.741 215.58 201.073 216.026C190.404 216.44 182.57 216.217 178.399 215.23Z" fill="#FFC933" stroke="#FEAC00" stroke-width="3" stroke-linecap="round" stroke-linejoin="round"/>
<path d="M169.864 144.062C169.864 144.062 179.227 132.02 183.621 128.388C188.016 124.757 189.258 124.438 190.787 123.896" stroke="#FEAC00" stroke-width="3" stroke-linecap="round" stroke-linejoin="round"/>
<path d="M166.743 129.79C166.743 129.79 171.297 134.186 181.042 130.809" stroke="#FEAC00" stroke-width="3" stroke-linecap="round" stroke-linejoin="round"/>
<path d="M198.939 133.453C198.939 133.453 202.538 166.903 203.461 178.849C204.353 190.796 204.353 209.113 204.353 209.113" stroke="#FEAC00" stroke-width="3" stroke-linecap="round" stroke-linejoin="round"/>
<path d="M205.372 227.08L211.996 268.048C211.996 268.048 215.372 293.756 215.149 299.809C214.926 305.894 215.021 307.742 211.964 313.348C208.907 318.955 163.845 393.85 163.845 393.85L152.635 384.325" stroke="#F1F2F7" stroke-width="3" stroke-linecap="round" stroke-linejoin="round"/>
<path d="M75.8233 176.141C75.8233 176.141 79.0716 174.134 81.3327 174.23C83.5937 174.293 87.7337 173.816 87.8929 176.81C87.9884 178.212 88.1158 179.868 88.1158 179.868" fill="#FFDFD7"/>
<path d="M75.8233 176.141C75.8233 176.141 79.0716 174.134 81.3327 174.23C83.5937 174.293 87.7337 173.816 87.8929 176.81C87.9884 178.212 88.1158 179.868 88.1158 179.868" stroke="white" stroke-width="2" stroke-linecap="round" stroke-linejoin="round"/>
<path d="M77.3835 171.65C77.3835 171.65 77.7975 173.434 83.5616 172.414C89.2939 171.363 91.7778 170.821 91.7778 170.821" fill="#FFDFD7"/>
<path d="M77.3835 171.65C77.3835 171.65 77.7975 173.434 83.5616 172.414C89.2939 171.363 91.7778 170.821 91.7778 170.821" stroke="white" stroke-width="2" stroke-linecap="round" stroke-linejoin="round"/>
<path d="M317.915 122.686C317.915 122.686 314.157 122.017 312.087 122.94C310.017 123.832 306.005 124.916 306.928 127.751C307.374 129.057 307.852 130.65 307.852 130.65" fill="#FFDFD7"/>
<path d="M317.915 122.686C317.915 122.686 314.157 122.017 312.087 122.94C310.017 123.832 306.005 124.916 306.928 127.751C307.374 129.057 307.852 130.65 307.852 130.65" stroke="white" stroke-width="2" stroke-linecap="round" stroke-linejoin="round"/>
<path d="M290.018 331.252C290.018 331.252 356.671 351.099 418.993 310.481" stroke="#ED85C3" stroke-width="3" stroke-linecap="round" stroke-linejoin="round"/>
<path d="M58.0215 57.0924L60.2189 108.637L79.6767 100.386L92.8927 131.255L89.517 79.0418L71.0783 86.6555L58.0215 57.0924Z" fill="#F1F2F7"/>
<path d="M286.611 76.4933L312.342 47.7266L297.629 41.9605L306.674 18.5139L281.197 48.2682L295.05 53.8431L286.611 76.4933Z" fill="#F1F2F7"/>
<path d="M226.744 3.79015L221.156 0L217.367 5.58998L222.955 9.38013L226.744 3.79015Z" fill="#F1F2F7"/>
<path d="M14.8362 121.956L12.274 113.679L4 116.243L6.56223 124.519L14.8362 121.956Z" fill="#F1F2F7"/>
<path d="M100.153 35.6528C102.528 35.6528 104.453 33.7274 104.453 31.3522C104.453 28.977 102.528 27.0515 100.153 27.0515C97.7791 27.0515 95.8542 28.977 95.8542 31.3522C95.8542 33.7274 97.7791 35.6528 100.153 35.6528Z" fill="#F1F2F7"/>
<path d="M239.606 47.5038C241.189 47.5038 242.472 46.2201 242.472 44.6367C242.472 43.0532 241.189 41.7695 239.606 41.7695C238.023 41.7695 236.74 43.0532 236.74 44.6367C236.74 46.2201 238.023 47.5038 239.606 47.5038Z" fill="#F1F2F7"/>
</g>
<defs>
<filter id="filter0_d_1_18" x="0" y="0" width="425" height="441.64" filterUnits="userSpaceOnUse" color-interpolation-filters="sRGB">
<feFlood flood-opacity="0" result="BackgroundImageFix"/>
<feColorMatrix in="SourceAlpha" type="matrix" values="0 0 0 0 0 0 0 0 0 0 0 0 0 0 0 0 0 0 127 0" result="hardAlpha"/>
<feOffset dy="4"/>
<feGaussianBlur stdDeviation="2"/>
<feComposite in2="hardAlpha" operator="out"/>
<feColorMatrix type="matrix" values="0 0 0 0 0 0 0 0 0 0 0 0 0 0 0 0 0 0 0.25 0"/>
<feBlend mode="normal" in2="BackgroundImageFix" result="effect1_dropShadow_1_18"/>
<feBlend mode="normal" in="SourceGraphic" in2="effect1_dropShadow_1_18" result="shape"/>
</filter>
</defs>
</svg>
